<?xml version="1.0" standalone="no"?>
<!DOCTYPE svg PUBLIC "-//W3C//DTD SVG 20010904//EN"
 "http://www.w3.org/TR/2001/REC-SVG-20010904/DTD/svg10.dtd">
<svg version="1.0" xmlns="http://www.w3.org/2000/svg"
 width="260.000000pt" height="260.000000pt" viewBox="0 0 260.000000 260.000000"
 preserveAspectRatio="xMidYMid meet">
<metadata>
Created by potrace 1.14, written by Peter Selinger 2001-2017
</metadata>
<g transform="translate(0.000000,260.000000) scale(0.100000,-0.100000)"
fill="#000000" stroke="none">
<path d="M1056 2511 c-3 -4 3 -16 13 -25 11 -10 22 -13 25 -8 3 5 -4 12 -15
15 -12 3 -18 10 -14 16 3 6 4 11 1 11 -3 0 -7 -4 -10 -9z"/>
<path d="M1293 2509 c9 -6 15 -14 12 -19 -3 -5 4 -7 15 -5 11 2 18 0 15 -5 -3
-5 -17 -7 -31 -4 -17 3 -23 1 -19 -7 5 -7 -1 -7 -16 2 -13 7 -26 12 -29 12
-15 -1 -29 10 -23 20 3 6 1 7 -6 3 -6 -4 -9 -11 -6 -16 3 -5 1 -11 -5 -15 -9
-5 -14 6 -12 26 1 9 -32 7 -45 -4 -7 -5 -13 -6 -13 -1 0 4 -14 -5 -32 -22 -17
-16 -28 -24 -24 -17 4 7 -3 17 -16 24 -21 11 -22 11 -10 -4 11 -13 10 -15 -9
-10 -17 5 -20 3 -14 -8 7 -12 6 -12 -9 0 -10 8 -15 23 -13 33 3 10 1 16 -4 12
-5 -3 -9 -14 -9 -24 0 -10 -5 -22 -12 -26 -7 -4 -8 -3 -4 4 4 7 1 12 -9 12
-10 0 -13 -5 -9 -12 6 -10 4 -10 -8 0 -12 9 -18 10 -23 2 -5 -8 -12 -7 -23 4
-10 8 -21 16 -27 18 -5 2 -9 6 -7 11 5 17 -9 5 -21 -19 -12 -22 -15 -24 -20
-10 -4 10 -3 15 3 11 6 -4 7 1 3 11 -5 15 -7 15 -15 0 -5 -9 -7 -20 -4 -24 2
-4 -12 -7 -32 -7 -21 1 -43 -4 -51 -10 -12 -8 -13 -7 -6 4 6 11 4 13 -9 8 -13
-5 -17 -3 -13 7 4 10 1 13 -8 9 -11 -4 -12 -10 -4 -26 9 -20 9 -20 -10 2 -12
12 -18 28 -14 34 3 5 1 7 -5 4 -11 -8 -11 -25 2 -46 6 -8 -1 -7 -18 4 -22 15
-26 15 -26 2 0 -9 -10 -14 -25 -14 -14 0 -25 4 -25 9 0 5 5 6 10 3 16 -10 11
1 -7 16 -9 8 -14 9 -10 3 10 -17 -33 -68 -46 -55 -15 15 -30 14 -21 -1 5 -8 2
-9 -11 -4 -16 6 -16 4 -4 -10 13 -16 12 -16 -8 -5 -16 8 -23 8 -23 1 0 -6 -4
-8 -10 -5 -5 3 -10 1 -10 -5 0 -7 7 -10 15 -7 8 4 17 2 20 -4 4 -5 1 -8 -7 -7
-7 2 -12 -2 -11 -9 4 -18 -24 -37 -33 -22 -4 7 -3 9 4 5 17 -10 22 7 6 22 -12
11 -14 10 -14 -3 0 -8 -5 -15 -11 -15 -6 0 -3 -7 5 -16 25 -24 19 -28 -12 -9
l-27 18 20 -23 c11 -13 14 -20 8 -16 -7 4 -14 2 -14 -3 -1 -6 -2 -17 -3 -23
-1 -7 -13 -13 -28 -13 -20 1 -25 -3 -19 -15 10 -19 3 -42 -11 -34 -7 4 -7 9 0
13 6 4 4 11 -4 19 -12 11 -14 9 -9 -17 4 -24 2 -30 -12 -30 -10 0 -31 -2 -46
-4 -18 -3 -31 1 -34 9 -3 8 -9 14 -14 14 -5 0 -2 -11 7 -25 15 -24 15 -25 0
-19 -10 4 -25 -1 -35 -10 -11 -10 -26 -14 -37 -10 -18 5 -18 5 -1 -9 16 -13
16 -15 2 -21 -9 -3 -14 -2 -11 2 3 5 -1 9 -9 9 -10 0 -11 -5 -6 -15 5 -8 6
-23 4 -33 -3 -11 0 -19 6 -19 6 0 11 -5 11 -11 0 -5 -4 -7 -10 -4 -5 3 -10 4
-10 1 0 -3 9 -10 20 -16 15 -8 19 -7 16 2 -1 7 -1 10 1 5 3 -4 9 -4 15 -1 6 4
5 -3 -2 -16 -11 -21 -11 -21 12 -7 23 15 36 15 79 2 22 -7 23 -7 9 11 -8 10
-9 14 -2 8 14 -12 74 -6 66 7 -3 5 0 9 5 9 17 0 13 -18 -6 -29 -15 -8 -16 -12
-5 -23 11 -11 13 -10 10 2 -2 8 2 14 7 15 6 0 21 7 35 15 31 18 41 19 59 6 12
-9 13 -8 6 4 -5 8 -11 23 -12 33 -2 14 3 12 23 -10 15 -15 21 -20 14 -10 -7 9
-11 17 -9 18 2 0 12 2 22 4 23 4 35 15 18 15 -7 0 -9 5 -5 13 4 6 -2 4 -13 -6
-16 -14 -23 -15 -29 -6 -4 8 -3 10 4 5 7 -4 12 -3 12 2 0 16 33 24 42 10 5 -8
8 -2 8 17 0 17 5 36 12 43 9 9 9 12 -3 12 -9 0 -10 3 -3 8 6 4 16 16 22 27 11
19 11 19 9 -2 -1 -13 -4 -23 -7 -23 -4 0 -7 -6 -7 -12 0 -7 -4 -22 -7 -33 -7
-18 -6 -18 6 1 7 12 20 19 28 17 10 -3 11 -2 4 4 -13 10 -14 43 -2 43 5 0 7 4
3 9 -6 11 21 41 37 41 6 0 0 -8 -12 -18 -18 -14 -19 -19 -7 -19 9 0 13 5 10
10 -4 6 0 8 10 4 10 -4 17 -1 17 6 0 7 9 20 19 29 17 14 20 14 25 2 3 -9 1
-12 -4 -9 -6 3 -10 -1 -10 -9 0 -9 -5 -16 -12 -16 -6 0 -8 -3 -5 -7 4 -3 16 2
26 11 11 10 25 15 33 11 10 -6 11 -5 1 6 -7 7 -13 18 -13 24 0 5 5 3 10 -5 9
-13 11 -13 20 0 7 11 10 11 10 2 0 -7 5 -10 12 -6 7 4 8 3 4 -5 -4 -6 -11 -9
-15 -7 -4 3 -8 -1 -8 -8 0 -11 4 -12 19 -3 10 7 18 17 18 24 0 6 4 14 9 18 10
6 8 -12 -4 -50 -3 -11 1 -6 11 10 9 17 21 33 27 37 17 10 39 -3 34 -21 -3 -12
2 -17 17 -17 15 0 23 7 23 19 2 19 2 19 -12 1 -10 -13 -14 -15 -15 -5 0 14 28
40 43 41 5 0 6 -10 3 -22 -3 -13 -3 -17 0 -10 3 6 10 10 15 7 5 -4 6 2 3 12
-4 11 -3 14 3 7 9 -12 36 -11 68 2 18 7 18 6 6 -9 -7 -9 -17 -15 -21 -12 -5 3
-11 2 -14 -3 -2 -4 6 -8 19 -8 13 0 21 4 19 8 -3 4 2 8 10 8 8 0 27 5 43 12
15 6 32 10 37 9 4 -1 15 4 24 11 10 9 13 9 9 1 -4 -6 -3 -14 3 -18 6 -4 8 -11
5 -16 -3 -5 1 -6 9 -3 9 3 16 10 16 16 0 5 -4 7 -8 4 -5 -3 -9 1 -9 9 0 13 3
13 17 0 19 -17 34 -20 25 -5 -3 6 1 7 9 4 9 -3 14 -10 11 -14 -3 -4 1 -10 9
-13 15 -6 16 9 2 31 -7 11 -4 11 12 1 12 -7 18 -17 16 -21 -8 -13 25 -9 56 7
23 12 28 12 24 2 -3 -8 3 -20 13 -28 16 -13 17 -12 5 3 -8 9 -9 19 -4 22 6 3
13 -1 16 -10 3 -8 11 -12 17 -8 6 3 16 0 21 -7 8 -12 9 -11 5 1 -2 8 -11 15
-19 14 -8 -1 -15 5 -15 12 0 9 5 10 19 3 10 -5 18 -6 18 -2 0 4 5 0 11 -10 5
-9 7 -22 3 -29 -5 -7 -3 -8 5 -4 7 5 10 14 7 22 -3 9 0 11 11 7 9 -4 14 -2 11
3 -4 5 10 9 30 9 28 0 39 -5 48 -23 16 -33 23 -37 17 -10 -3 16 -2 19 5 10 7
-11 10 -11 15 1 4 11 0 15 -14 12 -10 -2 -19 0 -19 6 0 10 28 8 48 -4 7 -5 15
-2 18 8 5 13 11 10 29 -15 19 -25 24 -28 29 -14 5 14 9 14 22 3 13 -11 17 -10
26 4 5 10 13 15 19 12 5 -4 9 -1 9 4 0 6 5 11 12 11 6 0 8 -3 5 -7 -4 -3 0
-15 9 -25 14 -14 20 -15 31 -6 21 17 53 20 53 5 0 -8 3 -8 8 -1 8 12 62 14 62
2 0 -5 15 -6 33 -4 17 3 26 3 19 0 -6 -3 -9 -11 -5 -17 4 -7 -1 -6 -10 2 -9 7
-17 9 -17 3 0 -14 28 -23 35 -12 11 17 25 11 25 -10 0 -18 3 -19 20 -8 15 10
22 10 31 1 9 -9 7 -11 -10 -6 -24 6 -26 1 -10 -29 11 -20 13 -20 24 -5 11 16
13 16 19 2 3 -9 2 -14 -2 -11 -4 3 -14 -4 -21 -16 -7 -11 -8 -17 -2 -14 5 4
13 1 17 -5 5 -9 11 -7 21 6 16 23 17 12 1 -18 -10 -19 -9 -20 3 -10 11 9 19 6
39 -14 24 -25 24 -26 3 -14 -13 6 -23 17 -23 23 0 6 -3 8 -6 5 -4 -4 -1 -13 5
-21 7 -8 9 -21 5 -28 -6 -10 -3 -9 9 1 9 7 17 10 17 5 0 -5 8 0 16 11 16 20
16 20 10 -2 -4 -12 -2 -24 3 -27 6 -4 8 -14 5 -24 -5 -14 -4 -14 4 -2 8 10 7
19 -1 30 -10 13 -10 13 4 3 9 -7 20 -9 24 -5 5 4 6 0 3 -9 -4 -9 -1 -16 8 -16
7 0 11 4 8 8 -2 4 0 11 6 14 6 4 9 1 8 -5 -3 -13 18 -20 64 -23 14 -1 24 -5
22 -8 -6 -11 60 -5 69 6 5 6 7 4 4 -5 -2 -10 -14 -14 -32 -13 -26 2 -27 1 -9
-11 13 -10 23 -11 31 -4 7 5 18 6 24 2 8 -5 9 -3 4 6 -6 10 -4 12 8 7 9 -3 19
-2 22 4 4 5 10 7 15 4 5 -3 11 -1 14 4 4 5 1 13 -5 17 -8 5 -9 3 -4 -7 5 -8 5
-11 0 -7 -4 4 -15 2 -24 -4 -9 -8 -8 -3 3 10 11 12 25 21 32 18 7 -3 16 4 19
15 4 10 11 16 17 13 7 -5 8 -2 3 6 -6 10 -11 10 -20 -4 -11 -14 -13 -13 -13
11 1 15 -5 29 -11 31 -6 2 -8 9 -4 15 12 19 12 37 1 37 -6 0 -8 -6 -5 -14 3
-8 0 -17 -8 -20 -9 -3 -12 0 -9 8 7 18 -12 30 -22 15 -5 -8 -3 -9 6 -4 9 5 11
4 6 -4 -4 -6 -12 -9 -17 -5 -5 3 -7 10 -4 15 9 13 -9 11 -25 -3 -12 -11 -12
-10 -1 4 11 15 10 17 -8 15 -12 -1 -21 -5 -21 -10 0 -5 -7 -1 -16 7 -8 9 -20
13 -26 10 -7 -4 -8 -2 -4 4 4 7 3 12 -3 12 -5 0 -11 -5 -13 -11 -2 -6 -9 2
-16 17 -11 26 -11 27 2 11 8 -10 17 -14 20 -9 5 9 -15 24 -36 26 -14 2 -21 16
-8 16 9 0 7 5 -5 14 -11 8 -23 12 -28 9 -4 -2 -6 7 -3 20 4 22 1 25 -20 22
-18 -2 -30 5 -41 22 -11 16 -19 20 -23 13 -5 -8 -9 -6 -14 6 -3 9 -4 19 -1 22
3 3 5 0 5 -7 0 -7 4 -10 9 -6 5 3 18 -6 29 -20 11 -13 22 -22 25 -18 4 3 -5
14 -18 25 -14 11 -23 24 -20 29 4 5 -1 6 -9 3 -10 -4 -16 -1 -16 7 -1 9 -4 8
-11 -4 -8 -13 -14 -15 -30 -7 -10 6 -19 9 -19 6 0 -3 -12 1 -26 9 -15 7 -35
12 -45 10 -11 -2 -17 0 -14 6 4 5 0 9 -7 10 -7 0 -23 2 -36 5 -17 3 -21 1 -16
-8 6 -10 5 -10 -8 -1 -8 7 -18 10 -22 6 -4 -4 -4 0 0 10 3 9 10 17 16 17 5 0
6 -4 3 -10 -10 -16 1 -11 16 7 10 11 10 14 2 9 -8 -4 -13 -2 -13 5 0 8 -4 8
-12 1 -7 -6 -16 -10 -20 -9 -3 1 -10 -2 -15 -7 -5 -5 -3 -6 4 -2 9 5 11 2 6
-9 -5 -13 -7 -14 -14 -3 -7 11 -11 10 -19 -2 -5 -8 -10 -10 -10 -5 0 6 6 17
13 24 10 11 9 13 -6 7 -10 -3 -23 -6 -28 -6 -6 0 -8 -4 -5 -9 4 -5 -3 -7 -14
-4 -11 3 -20 9 -20 14 0 5 6 6 13 3 8 -3 20 3 27 13 12 15 12 16 0 6 -8 -7
-18 -13 -23 -13 -4 0 -5 6 -1 13 6 9 4 9 -8 -1 -13 -10 -17 -10 -22 0 -3 7 -4
0 -1 -17 2 -16 2 -24 -1 -17 -3 6 -10 9 -16 6 -5 -3 -8 2 -6 12 2 14 -3 19
-22 19 -14 0 -30 3 -35 7 -15 9 -39 -7 -31 -21 4 -6 13 -11 19 -11 8 0 8 3 -2
9 -9 6 -10 11 -2 15 6 4 11 2 11 -3 0 -6 0 -14 0 -18 0 -9 -31 -12 -45 -4 -21
11 -46 11 -39 -1 5 -8 3 -8 -7 -2 -8 5 -27 10 -44 11 -16 1 -40 4 -52 7 -13 2
-25 0 -28 -5 -8 -12 -25 -2 -25 14 0 8 3 8 9 -2 6 -9 11 -10 15 -2 4 6 2 12
-3 12 -6 1 -15 2 -20 3 -6 0 -16 7 -22 14 -7 6 -18 12 -23 12 -6 0 -3 -5 7
-11 9 -6 14 -15 11 -21 -5 -7 -2 -8 6 -3 8 5 11 4 6 -3 -4 -6 -14 -8 -23 -5
-11 4 -14 3 -9 -5 4 -7 2 -12 -3 -12 -14 0 -14 13 0 27 7 7 3 10 -15 8 -14 -2
-30 3 -37 11 -6 8 -17 14 -23 14 -6 0 -3 -5 7 -11z m-118 -30 c2 -9 -3 -16
-11 -16 -7 0 -11 4 -8 9 3 4 1 8 -5 8 -5 0 -13 -4 -16 -10 -3 -5 -12 -10 -18
-9 -9 0 -8 2 1 6 6 2 9 10 6 15 -4 6 -2 8 4 4 6 -3 14 -2 17 4 9 15 28 8 30
-11z m55 -9 c0 -5 -5 -10 -11 -10 -5 0 -7 5 -4 10 3 6 8 10 11 10 2 0 4 -4 4
-10z m472 3 c-6 -3 -10 -9 -7 -14 4 -5 -1 -6 -9 -3 -23 9 -19 20 7 21 12 0 16
-1 9 -4z m-822 -13 c12 -7 10 -9 -8 -7 -12 0 -22 5 -22 9 0 11 12 10 30 -2z
m1304 -161 c-3 -5 -10 -7 -15 -3 -5 3 -7 10 -3 15 3 5 10 7 15 3 5 -3 7 -10 3
-15z m-517 -7 c0 -8 -4 -9 -10 -3 -7 7 -15 7 -26 -2 -10 -8 -13 -8 -8 0 4 6 1
13 -5 16 -7 2 1 4 18 3 18 0 31 -6 31 -14z m103 0 c0 -13 -12 -22 -22 -16 -10
6 -1 24 13 24 5 0 9 -4 9 -8z m444 -33 c-3 -5 -1 -16 6 -24 8 -10 8 -15 -1
-21 -7 -4 -9 -3 -6 3 4 5 -2 19 -13 31 -14 14 -16 22 -7 25 16 6 29 -2 21 -14z
m-196 -64 c-3 -3 -9 2 -12 12 -6 14 -5 15 5 6 7 -7 10 -15 7 -18z m32 -35 c0
-5 -2 -10 -4 -10 -3 0 -8 5 -11 10 -3 6 -1 10 4 10 6 0 11 -4 11 -10z m-1662
-101 c-2 -6 -7 -10 -12 -9 -4 1 -14 -7 -22 -17 -14 -17 -14 -16 -4 5 6 12 15
20 21 17 5 -4 9 -1 9 4 0 6 3 11 6 11 3 0 4 -5 2 -11z"/>
<path d="M886 2498 c3 -5 10 -6 15 -3 13 9 11 12 -6 12 -8 0 -12 -4 -9 -9z"/>
<path d="M934 2496 c-3 -9 -10 -14 -14 -11 -5 3 -11 1 -14 -4 -4 -5 -2 -12 3
-15 5 -4 12 -2 16 4 4 6 11 8 16 5 5 -4 6 2 2 12 -6 15 -4 16 9 5 12 -9 18
-10 23 -2 4 6 4 14 1 17 -3 4 -6 1 -6 -7 0 -10 -3 -10 -15 0 -12 10 -16 9 -21
-4z"/>
<path d="M1238 2504 c6 -3 9 -11 5 -17 -4 -7 1 -6 10 2 12 9 17 10 17 2 0 -7
5 -9 11 -6 14 9 7 15 -27 20 -16 2 -23 2 -16 -1z"/>
<path d="M1467 2493 c3 -7 9 -11 13 -8 5 3 10 -1 13 -7 3 -7 5 -4 4 7 -1 12
-8 21 -18 21 -9 0 -15 -6 -12 -13z"/>
<path d="M1514 2499 c-3 -6 -1 -16 4 -21 8 -8 11 -5 9 11 -1 24 -3 25 -13 10z"/>
<path d="M1550 2500 c-11 -7 -11 -10 -2 -10 7 0 11 -4 8 -8 -3 -5 5 -8 17 -7
12 1 29 -3 37 -9 13 -9 13 -9 3 5 -7 9 -11 19 -8 23 3 3 0 2 -6 -3 -14 -11
-41 -3 -33 10 7 11 3 11 -16 -1z"/>
<path d="M795 2490 c-4 -6 -11 -8 -16 -5 -5 3 -6 -1 -3 -10 4 -9 7 -15 8 -13
1 2 8 11 15 21 7 9 11 17 8 17 -3 0 -9 -5 -12 -10z"/>
<path d="M740 2481 c0 -7 -5 -9 -12 -5 -7 4 -10 3 -5 -1 4 -5 18 -10 30 -12
12 -2 18 0 12 5 -5 4 -13 11 -17 16 -5 5 -8 4 -8 -3z"/>
<path d="M1010 2479 c0 -5 5 -7 10 -4 6 3 10 8 10 11 0 2 -4 4 -10 4 -5 0 -10
-5 -10 -11z"/>
<path d="M597 2459 c4 -13 8 -18 11 -10 2 7 -1 18 -6 23 -8 8 -9 4 -5 -13z"/>
<path d="M515 2433 c2 -10 4 -20 4 -22 2 -8 31 22 31 33 0 6 -5 4 -10 -4 -6
-10 -10 -11 -10 -2 0 6 -4 12 -9 12 -5 0 -8 -8 -6 -17z"/>
<path d="M1963 2440 c2 -8 13 -15 24 -15 11 0 27 -6 36 -14 10 -7 17 -10 17
-7 0 4 10 2 23 -4 20 -10 20 -10 5 3 -10 8 -14 18 -10 23 4 4 0 3 -8 -3 -11
-8 -18 -8 -28 3 -10 10 -10 14 -1 14 7 0 10 3 6 6 -3 3 -12 2 -19 -2 -18 -12
-32 -12 -41 1 -5 6 -7 4 -4 -5z"/>
<path d="M475 2430 c-3 -6 1 -7 9 -4 18 7 21 14 7 14 -6 0 -13 -4 -16 -10z"/>
<path d="M2215 2311 c-3 -5 -2 -12 3 -15 5 -3 9 1 9 9 0 17 -3 19 -12 6z"/>
<path d="M1054 2299 c-2 -4 4 -13 13 -20 12 -10 14 -10 9 -1 -4 7 -1 12 8 12
9 0 16 4 16 8 0 9 -40 10 -46 1z"/>
<path d="M1272 2287 c-8 -10 -6 -13 7 -13 11 0 17 6 14 13 -3 7 -6 13 -8 13
-1 0 -7 -6 -13 -13z"/>
<path d="M1443 2286 c-4 -5 -1 -6 7 -1 9 6 12 4 8 -6 -4 -9 1 -15 11 -15 9 0
18 8 18 17 2 19 -34 23 -44 5z"/>
<path d="M1575 2291 c-3 -6 -10 -9 -14 -7 -4 3 -8 -1 -8 -9 0 -13 4 -12 19 2
10 9 19 13 19 10 1 -4 2 -11 3 -16 0 -5 4 -12 8 -16 3 -4 5 0 4 9 -3 24 -22
40 -31 27z"/>
<path d="M335 2280 c-3 -5 -5 -10 -3 -11 33 -8 38 -7 27 7 -14 17 -16 17 -24
4z"/>
<path d="M793 2270 c-11 -16 -10 -18 2 -14 8 4 15 12 15 20 0 19 -3 18 -17 -6z"/>
<path d="M1690 2279 c0 -9 31 -21 38 -14 3 3 0 5 -7 5 -7 0 -10 4 -7 8 3 5 -1
9 -9 9 -8 0 -15 -4 -15 -8z"/>
<path d="M1786 2265 c3 -6 11 -12 18 -12 8 0 12 6 10 12 -3 6 -11 12 -18 12
-8 0 -12 -6 -10 -12z"/>
<path d="M1847 2263 c5 -12 7 -12 14 -1 7 10 9 11 9 0 0 -7 4 -11 9 -8 5 4 12
0 14 -6 4 -9 6 -10 6 -1 1 14 -11 23 -38 28 -14 3 -18 -1 -14 -12z"/>
<path d="M280 2219 c0 -5 -4 -8 -8 -5 -4 2 -14 1 -21 -3 -9 -6 -10 -11 -2 -15
6 -4 11 -3 11 3 0 5 9 8 19 6 14 -3 18 1 14 11 -6 17 -13 18 -13 3z"/>
<path d="M2292 2222 c2 -8 7 -13 12 -12 5 1 12 -4 17 -12 6 -9 8 -6 6 10 -1
23 -17 32 -17 10 0 -9 -4 -8 -11 2 -7 10 -9 11 -7 2z"/>
<path d="M570 2200 c0 -5 5 -10 10 -10 6 0 10 5 10 10 0 6 -4 10 -10 10 -5 0
-10 -4 -10 -10z"/>
<path d="M172 2196 c10 -11 -14 -34 -29 -29 -7 3 -13 3 -13 0 0 -15 30 -13 45
3 13 14 14 20 3 26 -7 4 -10 4 -6 0z"/>
<path d="M2457 2124 c6 -15 23 -19 23 -5 0 5 -7 11 -14 14 -10 4 -13 1 -9 -9z"/>
<path d="M2106 2062 c-3 -5 1 -9 9 -9 8 0 12 4 9 9 -3 4 -7 8 -9 8 -2 0 -6 -4
-9 -8z"/>
<path d="M2205 2029 c-18 -9 -18 -9 2 -5 13 2 34 -5 50 -17 15 -12 24 -16 19
-9 -11 18 5 14 21 -5 13 -16 13 -16 3 5 -6 12 -15 22 -20 22 -17 0 -25 2 -40
10 -8 4 -24 3 -35 -1z"/>
<path d="M180 2005 c-6 -7 2 -11 30 -11 21 0 37 3 34 7 -2 5 -12 5 -21 2 -10
-4 -14 -2 -10 4 8 13 -21 12 -33 -2z"/>
<path d="M277 2007 c-3 -8 1 -14 8 -14 7 0 11 6 8 14 -3 7 -6 13 -8 13 -2 0
-5 -6 -8 -13z"/>
<path d="M520 1835 c-7 -8 -17 -12 -24 -8 -6 3 -8 2 -3 -2 14 -16 43 -12 43 7
0 22 0 22 -16 3z"/>
<path d="M2020 1840 c-8 -5 -10 -10 -5 -10 6 0 17 5 25 10 8 5 11 10 5 10 -5
0 -17 -5 -25 -10z"/>
<path d="M2075 1840 c-3 -5 -1 -10 4 -10 6 0 11 5 11 10 0 6 -2 10 -4 10 -3 0
-8 -4 -11 -10z"/>
<path d="M1916 1827 c3 -10 9 -15 12 -12 3 3 0 11 -7 18 -10 9 -11 8 -5 -6z"/>
<path d="M1940 1837 c0 -5 5 -18 12 -30 10 -20 10 -21 -5 -8 -16 13 -22 8 -18
-13 1 -5 -4 -4 -12 2 -8 7 -17 9 -20 5 -4 -3 -7 -1 -7 7 0 10 -3 10 -15 0 -14
-11 -19 -7 -16 12 0 4 -7 4 -16 1 -12 -5 -14 -3 -8 7 5 8 4 11 -3 6 -6 -4 -10
-12 -8 -19 1 -7 1 -9 -1 -4 -9 15 -25 6 -19 -10 4 -10 4 -14 0 -10 -4 4 -17 1
-29 -7 -19 -12 -22 -12 -22 0 0 8 4 14 9 14 5 0 6 5 2 11 -9 16 -23 -8 -20
-35 2 -18 -2 -22 -24 -20 -23 2 -27 -2 -26 -25 0 -17 -4 -25 -14 -23 -11 3
-11 0 0 -13 16 -19 25 -11 25 22 0 15 7 29 15 31 13 5 13 3 1 -11 -11 -14 -11
-17 0 -17 12 0 12 -2 1 -9 -17 -11 -17 -21 0 -33 10 -8 9 -9 -3 -5 -14 5 -16
-3 -14 -46 2 -29 1 -47 -2 -40 -2 7 -11 9 -18 6 -12 -4 -12 -7 -1 -19 8 -7 13
-22 12 -31 -2 -10 2 -22 8 -26 7 -6 6 -7 -4 -4 -8 2 -14 10 -13 16 2 6 -2 11
-7 11 -15 0 -12 -16 5 -30 9 -8 13 -21 10 -34 -5 -15 -4 -17 3 -8 7 11 10 10
16 -3 3 -9 3 -22 0 -28 -3 -7 1 -4 10 7 9 11 29 19 50 19 20 1 36 6 36 11 0 5
3 6 6 3 4 -4 2 -13 -5 -20 -9 -11 -7 -17 6 -28 11 -9 14 -10 9 -1 -7 12 15 17
58 12 11 -1 16 3 11 9 -3 6 -11 9 -16 6 -5 -4 -9 -1 -9 5 0 13 63 3 68 -11 2
-5 9 -6 14 -3 7 5 8 2 3 -5 -5 -9 -10 -10 -18 -2 -14 14 -27 14 -27 1 0 -6 3
-9 8 -8 4 1 17 -3 30 -10 12 -7 22 -10 22 -6 0 3 6 1 14 -5 10 -8 16 -9 21 -1
3 5 12 10 18 10 7 0 6 -4 -3 -10 -9 -6 -10 -10 -3 -10 6 0 10 -9 8 -19 -4 -21
14 -20 45 3 8 6 6 0 -5 -12 -16 -20 -17 -25 -5 -32 8 -6 11 -10 5 -10 -5 0 -1
-7 9 -15 13 -10 15 -15 6 -15 -7 0 -11 -2 -8 -5 3 -3 17 -1 31 4 24 9 25 8 21
-15 -3 -19 -1 -24 8 -18 7 4 4 -2 -6 -15 -16 -18 -17 -24 -6 -34 8 -7 11 -8 7
-1 -4 7 1 18 11 25 15 13 16 12 3 -3 -9 -12 -10 -18 -2 -18 6 0 9 -10 7 -22
-3 -13 -5 -27 -5 -33 -1 -5 -6 -3 -12 5 -9 12 -10 12 -5 -3 3 -10 6 -21 6 -24
0 -3 8 1 18 8 15 12 16 12 5 -2 -7 -9 -9 -20 -5 -24 4 -5 -6 -1 -23 10 -25 15
-28 16 -16 2 7 -9 9 -17 3 -17 -5 0 -13 -8 -16 -17 -6 -15 -4 -15 14 2 12 11
20 13 20 6 0 -7 4 -10 8 -7 5 3 9 -1 9 -9 0 -11 -4 -12 -14 -4 -13 11 -13 11
-27 -35 -3 -7 1 -19 7 -25 9 -10 9 -12 -3 -9 -8 2 -15 -3 -16 -9 -1 -7 -3 -15
-4 -18 -1 -3 -3 -11 -4 -17 0 -7 -7 -13 -14 -13 -7 0 -17 -7 -22 -15 -8 -13
-11 -13 -22 -1 -11 11 -11 13 1 6 10 -6 12 -4 6 5 -6 9 -4 11 5 5 9 -6 11 -4
5 5 -6 9 -4 11 5 5 9 -6 11 -4 5 5 -6 9 -4 11 5 5 9 -6 11 -4 5 5 -6 9 -4 11
5 5 9 -6 11 -4 6 4 -5 7 -1 18 9 25 16 11 16 13 -2 26 -12 9 -14 10 -6 1 8
-10 6 -18 -10 -34 -12 -12 -25 -21 -29 -20 -5 2 -7 -3 -5 -10 1 -6 -4 -11 -10
-10 -7 2 -12 -3 -10 -10 1 -6 -4 -11 -11 -9 -8 1 -11 -2 -6 -9 5 -9 2 -10 -9
-6 -11 4 -14 2 -10 -9 5 -13 8 -13 24 2 17 15 18 15 16 -4 0 -11 -6 -18 -12
-15 -7 2 -17 -3 -24 -11 -7 -8 -20 -12 -28 -9 -9 4 -14 2 -10 -3 3 -5 -5 -11
-19 -12 -13 -1 -24 3 -24 8 0 5 6 7 14 4 14 -5 29 10 33 35 1 10 -1 11 -9 3
-9 -9 -16 -8 -27 1 -10 7 -8 2 3 -11 17 -19 10 -33 -8 -15 -3 4 -15 7 -26 8
-19 2 -19 1 -3 -18 10 -11 13 -17 6 -14 -6 4 -13 4 -16 0 -2 -5 -2 -2 -1 4 2
9 -7 11 -29 9 l-32 -4 25 20 25 21 -24 -8 c-13 -4 -21 -3 -18 2 3 5 -3 10 -14
10 -10 1 -19 -3 -19 -8 0 -5 -12 -8 -27 -6 -18 3 -27 9 -25 19 1 8 -4 15 -13
15 -8 0 -11 -5 -8 -10 4 -6 0 -8 -9 -4 -9 3 -21 0 -27 -6 -9 -9 -11 -8 -6 6 4
10 2 17 -4 17 -6 0 -10 -3 -10 -7 3 -21 -2 -33 -13 -27 -7 4 -8 3 -4 -5 4 -6
10 -9 14 -7 4 2 7 -6 7 -19 0 -16 -4 -20 -11 -14 -7 5 -11 3 -11 -6 0 -8 7
-15 14 -15 10 0 12 -6 7 -22 -6 -21 -5 -22 11 -8 11 9 16 10 11 3 -4 -7 -2
-14 3 -14 6 -1 16 -2 22 -3 6 0 17 -9 24 -19 9 -13 14 -14 17 -6 3 9 7 7 11
-5 4 -10 3 -15 -3 -11 -6 3 -10 1 -10 -4 0 -14 17 -14 25 -2 6 11 45 10 45 0
0 -4 11 -6 25 -5 13 2 22 -1 19 -5 -8 -13 10 -11 26 4 12 10 12 9 1 -5 -15
-20 -2 -25 17 -6 16 16 16 -4 0 -21 -9 -9 -9 -12 -1 -7 6 3 13 3 16 -1 2 -5 2
-2 1 4 -2 8 5 11 19 9 12 -2 21 -9 19 -16 -1 -6 2 -9 8 -5 8 5 7 11 -1 21 -9
11 -9 14 0 14 7 0 9 5 5 12 -4 7 -3 8 5 4 6 -4 9 -11 6 -16 -6 -10 66 -8 83 3
6 5 12 13 12 20 0 6 -6 2 -14 -9 -8 -10 -17 -16 -21 -12 -9 8 36 49 47 42 4
-3 8 3 9 13 0 10 3 13 6 6 2 -7 11 -13 19 -13 17 0 19 20 2 20 -7 0 -5 5 5 11
9 5 21 8 26 5 7 -5 20 18 25 47 0 4 4 7 9 7 4 0 10 0 13 0 4 0 2 -6 -4 -13 -6
-7 -7 -19 -3 -26 10 -16 19 3 16 37 -1 18 2 21 19 17 20 -6 20 -5 3 9 -15 12
-17 18 -7 35 9 18 30 21 30 5 0 -3 -4 -3 -9 0 -5 3 -11 -1 -15 -9 -3 -9 0 -15
8 -15 19 0 25 21 13 45 -10 19 -9 20 11 2 15 -14 22 -15 28 -6 4 7 3 10 -4 5
-14 -9 -34 28 -26 48 3 9 14 16 24 16 22 0 28 15 24 58 -2 22 1 30 9 26 7 -4
7 -1 -1 7 -11 12 -14 12 -23 -1 -9 -13 -10 -12 -6 2 3 9 1 19 -6 22 -9 3 -8 5
1 5 7 1 23 -4 35 -10 16 -8 13 -3 -8 16 -16 14 -25 24 -18 21 6 -4 14 -2 18 4
3 5 1 10 -4 10 -6 0 -11 7 -11 16 0 9 -5 12 -12 8 -10 -6 -10 -5 -1 8 7 8 9
19 5 23 -4 5 -1 5 7 0 9 -5 12 -4 7 3 -4 7 -1 12 6 12 7 0 -1 9 -19 20 -31 19
-36 40 -17 71 9 15 -16 30 -38 23 -20 -6 -23 4 -7 26 9 13 10 12 5 -2 -7 -24
1 -23 14 1 10 20 -2 24 -26 9 -7 -5 -10 1 -6 17 2 14 0 25 -7 25 -5 0 -8 -8
-5 -17 5 -15 4 -16 -5 -3 -8 11 -7 18 6 28 20 15 9 16 -18 2 -15 -8 -19 -8
-17 2 2 7 -3 12 -10 10 -8 -1 -11 2 -7 8 5 9 -6 14 -26 12 -9 -1 -7 33 3 39 6
4 -9 5 -31 3 -23 -1 -41 2 -41 7 0 6 -4 8 -9 4 -6 -3 -8 3 -6 13 2 10 -1 25
-6 33 -6 9 -9 10 -9 2 0 -7 -7 -10 -17 -7 -15 5 -15 4 -3 -4 8 -6 18 -8 22 -6
4 3 5 -2 1 -11 -4 -12 -8 -13 -13 -5 -5 7 -13 9 -20 5 -9 -6 -11 -4 -5 5 6 10
4 12 -9 7 -9 -4 -15 -3 -11 2 3 5 -1 11 -7 13 -8 3 0 17 22 36 19 18 28 32 21
32 -8 0 -11 3 -8 6 4 4 13 1 22 -6 14 -12 19 -7 16 13 -1 5 3 6 9 2 6 -3 8
-11 5 -16 -4 -5 4 -9 15 -9 16 0 20 -4 16 -16 -3 -9 -2 -12 4 -9 6 4 9 14 8
23 -2 12 3 16 16 14 12 -2 16 1 10 10 -4 7 -3 10 1 5 5 -4 19 0 31 8 25 16 38
7 28 -19 -3 -9 -4 -16 -1 -16 3 0 10 14 16 30 6 18 6 28 1 25 -6 -4 -10 -1
-10 4 0 6 5 11 10 11 6 0 4 13 -5 30 -14 27 -26 35 -48 31 -5 -1 -6 3 -3 8 4
5 2 12 -4 16 -5 3 -10 0 -10 -7 0 -8 -5 -6 -11 5 -6 9 -14 15 -19 12 -5 -3
-18 -1 -28 4 -13 7 -22 7 -29 0 -8 -8 -17 -8 -31 0 -15 8 -23 8 -28 -1 -4 -6
-3 -8 4 -4 6 3 14 1 18 -5 5 -8 3 -9 -6 -4 -10 6 -12 4 -7 -8 10 -27 1 -20
-22 16 -11 17 -21 28 -21 24z m116 -29 c5 -7 3 -8 -6 -3 -10 6 -12 4 -6 -11 5
-14 4 -16 -5 -7 -6 6 -8 16 -5 22 9 14 13 14 22 -1z m-76 -153 c8 -11 10 -17
5 -12 -4 4 -20 -11 -34 -32 -24 -36 -28 -38 -45 -25 -16 12 -17 16 -5 30 12
15 11 16 -11 10 l-25 -8 23 17 c14 10 30 14 45 9 12 -3 19 -3 15 1 -4 5 -3 14
4 22 6 7 11 12 12 11 1 -2 8 -12 16 -23z m-90 5 c0 -5 -5 -10 -11 -10 -5 0 -7
5 -4 10 3 6 8 10 11 10 2 0 4 -4 4 -10z m-39 -63 c-10 -9 -11 -8 -5 6 3 10 9
15 12 12 3 -3 0 -11 -7 -18z m-121 -142 c0 -5 -5 -3 -10 5 -5 8 -10 20 -10 25
0 6 5 3 10 -5 5 -8 10 -19 10 -25z m121 -8 c-13 -13 -26 -3 -16 12 3 6 11 8
17 5 6 -4 6 -10 -1 -17z m143 -33 c5 -13 4 -14 -7 -6 -8 7 -18 8 -22 4 -5 -4
-5 -1 -1 6 10 17 23 15 30 -4z m260 -65 c-3 -5 -10 -7 -15 -3 -5 3 -7 10 -3
15 3 5 10 7 15 3 5 -3 7 -10 3 -15z m-164 -9 c0 -5 0 -13 -1 -16 0 -4 5 -11
13 -15 7 -5 9 -9 3 -9 -5 0 -17 5 -25 10 -13 8 -13 10 -1 10 11 0 9 4 -5 15
-17 13 -17 14 -1 15 9 0 17 -4 17 -10z m200 -74 c0 -2 -7 -6 -15 -10 -8 -3
-15 -1 -15 4 0 6 7 10 15 10 8 0 15 -2 15 -4z m5 -194 c0 -14 -7 -27 -15 -30
-13 -3 -12 -2 0 7 9 7 10 11 3 11 -6 0 -11 8 -10 18 2 29 24 22 22 -6z m-496
-173 c-22 -13 -31 -11 -17 5 7 8 17 12 22 9 4 -3 2 -9 -5 -14z m223 -151 c-9
-9 -15 -9 -24 1 -11 11 -10 13 5 8 10 -4 17 -2 17 5 0 6 3 8 7 5 4 -4 1 -13
-5 -19z m-78 -3 c-4 -8 -11 -12 -16 -9 -6 4 -5 10 3 15 19 12 19 11 13 -6z"/>
<path d="M1905 1611 c-7 -12 12 -24 25 -16 11 7 4 25 -10 25 -5 0 -11 -4 -15
-9z"/>
<path d="M447 1809 c-9 -10 -13 -19 -7 -19 5 0 13 7 18 16 6 11 11 13 16 5 4
-6 2 -11 -4 -11 -6 0 -8 -6 -4 -12 4 -7 4 -10 -1 -6 -4 4 -14 0 -22 -10 -8 -9
-12 -12 -9 -6 3 7 -1 15 -10 18 -12 5 -15 2 -10 -10 5 -12 2 -15 -11 -10 -14
6 -14 4 3 -16 10 -12 12 -18 4 -12 -18 13 -52 15 -44 2 3 -5 10 -6 15 -3 5 4
9 -1 9 -9 0 -18 -11 -21 -26 -6 -7 7 -11 7 -12 -2 0 -7 -4 -24 -8 -37 -5 -19
-4 -22 6 -16 9 6 11 4 5 -4 -5 -9 -10 -10 -18 -2 -14 14 -27 14 -27 0 0 -5 5
-7 10 -4 12 7 12 3 4 -19 -3 -9 -11 -13 -18 -10 -6 3 -2 -2 8 -10 11 -9 14
-16 8 -16 -7 0 -12 -5 -12 -12 0 -6 3 -9 6 -5 9 8 37 -21 30 -31 -3 -5 1 -18
9 -28 15 -19 15 -19 8 0 -4 13 -3 17 4 13 6 -4 14 -1 16 5 4 10 6 10 6 0 1 -7
5 -11 10 -8 5 3 17 -2 28 -12 10 -9 13 -13 6 -9 -6 5 -18 5 -24 1 -7 -4 -9 -3
-6 3 3 5 0 10 -8 10 -21 0 -19 -10 6 -25 17 -11 20 -11 13 0 -4 7 2 4 14 -6
25 -21 31 -36 7 -16 -10 8 -15 9 -15 2 0 -6 8 -16 18 -21 10 -6 12 -11 4 -11
-8 0 -10 -5 -5 -12 12 -21 11 -55 -3 -55 -13 0 -13 14 -1 35 5 7 3 12 -3 12
-7 0 -10 7 -6 15 3 8 1 15 -4 15 -9 0 -9 -17 -1 -93 1 -5 5 -6 9 -3 5 3 9 -1
9 -8 0 -8 -6 -12 -14 -9 -9 3 -11 0 -7 -10 3 -9 13 -14 22 -10 13 4 14 3 3 -5
-9 -7 -10 -11 -2 -17 9 -5 9 -10 1 -20 -8 -10 -7 -14 2 -18 11 -4 11 -6 0 -6
-10 -1 -10 -6 -1 -22 8 -15 8 -19 0 -15 -15 10 -14 -17 2 -33 9 -10 9 -12 0
-7 -9 5 -11 -2 -8 -24 4 -34 3 -34 -28 -19 -19 9 -19 8 3 -10 13 -10 29 -17
34 -14 5 3 6 1 2 -6 -4 -6 -11 -9 -16 -6 -5 3 -11 1 -15 -5 -3 -5 1 -10 9 -10
20 0 29 -17 15 -26 -8 -5 -9 -3 -4 7 6 11 5 11 -4 3 -7 -6 -14 -20 -16 -30 -2
-11 -4 -19 -5 -19 -1 0 -3 -8 -5 -17 -2 -10 3 -18 11 -18 8 0 14 5 14 10 0 6
-5 10 -11 10 -8 0 -9 4 0 13 6 8 8 17 4 21 -4 4 1 4 11 0 13 -5 14 -9 6 -14
-7 -4 -9 -13 -6 -19 4 -6 -3 -25 -15 -43 -13 -17 -17 -28 -10 -24 10 6 11 3 7
-12 -4 -11 -2 -23 3 -27 7 -4 8 1 5 12 -5 15 -4 15 4 3 6 -8 9 -17 6 -21 -2
-4 0 -11 6 -14 7 -4 8 -11 2 -18 -5 -7 -9 -29 -8 -50 1 -35 4 -39 53 -62 46
-21 54 -22 61 -9 5 9 13 16 18 16 5 -1 7 7 6 16 -3 14 -1 15 9 5 16 -16 29
-17 29 -2 0 5 -5 7 -11 3 -8 -4 -9 1 -4 16 5 15 4 20 -4 16 -6 -4 -11 -2 -11
3 0 12 26 15 33 4 2 -5 2 -2 0 6 -2 8 2 11 12 7 9 -3 13 -2 10 4 -4 6 -17 8
-31 6 -31 -6 -30 0 4 19 16 10 19 14 7 11 -20 -6 -20 -6 -1 9 11 8 15 15 10
15 -6 0 -10 10 -9 23 3 31 -5 48 -19 40 -6 -3 -8 -3 -4 2 4 4 2 15 -5 23 -9
13 -9 14 1 8 14 -8 16 3 3 23 -11 16 -4 41 11 41 6 0 5 -6 -2 -15 -7 -9 -8
-15 -2 -15 6 0 9 -11 8 -25 -2 -13 1 -22 5 -19 5 3 9 0 9 -7 0 -7 3 -10 6 -7
3 4 0 16 -6 29 -11 20 -10 21 6 15 17 -5 17 -5 -1 9 -17 14 -18 17 -5 25 13 9
13 10 0 10 -13 0 -13 1 0 10 8 5 10 10 3 10 -6 0 -10 11 -8 25 1 16 -3 25 -11
25 -8 0 -14 5 -14 11 0 6 9 8 23 4 17 -5 19 -4 7 4 -13 9 -13 14 -2 32 8 11 9
19 4 15 -5 -3 -9 8 -10 23 0 24 3 28 21 24 15 -3 12 1 -9 12 -30 16 -42 45
-18 45 7 0 11 8 9 18 -1 9 0 22 4 27 10 18 11 45 1 45 -6 0 -10 7 -10 16 0 8
4 13 8 10 5 -3 9 1 9 9 0 8 -4 12 -9 9 -4 -3 -6 5 -4 18 3 13 5 25 5 28 1 3 6
-2 11 -10 5 -8 10 -10 10 -4 0 6 -7 17 -15 24 -8 7 -12 17 -8 23 11 19 12 77
0 70 -7 -4 -8 0 -4 12 4 9 2 24 -4 32 -7 7 -9 16 -6 20 4 3 1 13 -6 21 -9 13
-9 14 1 8 6 -4 12 -4 13 1 0 4 2 18 5 31 2 12 0 22 -5 22 -6 0 -8 -8 -6 -18 2
-11 -3 -19 -11 -19 -9 0 -11 4 -4 12 6 7 5 16 -3 25 -9 10 -9 11 1 6 6 -4 12
-2 12 3 0 6 -5 11 -11 11 -5 0 -7 5 -3 12 5 7 11 5 21 -7 7 -11 13 -14 13 -8
0 7 -5 15 -10 18 -6 4 -8 11 -4 16 3 5 1 8 -4 7 -5 -2 -19 8 -32 22 l-22 25
22 -32 c12 -18 17 -33 12 -33 -6 0 -13 7 -16 16 -3 8 -10 13 -15 9 -5 -3 -13
0 -16 6 -4 5 -13 8 -20 5 -7 -2 -21 2 -32 9 -17 12 -22 11 -36 -6z m-67 -113
c0 -2 -7 -7 -16 -10 -8 -3 -12 -2 -9 4 6 10 25 14 25 6z m223 -93 c-3 -7 -6
-13 -8 -13 -2 0 -5 6 -8 13 -3 8 1 14 8 14 7 0 11 -6 8 -14z m12 -60 c-2 -14
-7 -28 -9 -31 -3 -3 -1 -11 5 -18 7 -8 7 -14 -1 -19 -6 -3 -8 -10 -6 -14 3 -4
-1 -8 -9 -8 -13 0 -13 3 1 18 11 12 12 18 3 21 -9 3 -9 9 -1 25 6 11 8 23 5
27 -13 13 -11 35 3 29 9 -3 12 -15 9 -30z m-11 -124 c-3 -5 -10 -7 -15 -3 -5
3 -7 10 -3 15 3 5 10 7 15 3 5 -3 7 -10 3 -15z m11 -54 c0 -10 -5 -20 -11 -22
-7 -2 -11 7 -11 22 0 15 4 24 11 22 6 -2 11 -12 11 -22z m-5 -41 c0 -8 -19
-13 -24 -6 -3 5 1 9 9 9 8 0 15 -2 15 -3z m-16 -79 c3 -8 1 -15 -4 -15 -6 0
-10 7 -10 15 0 8 2 15 4 15 2 0 6 -7 10 -15z m10 -66 c-3 -5 -10 -7 -15 -3 -5
3 -7 10 -3 15 3 5 10 7 15 3 5 -3 7 -10 3 -15z m1 -88 c2 -11 0 -21 -4 -21 -5
0 -8 11 -8 25 0 30 6 28 12 -4z m-170 -131 c-3 -5 -1 -10 6 -10 7 0 10 -3 6
-6 -9 -9 -28 6 -22 17 4 5 8 9 11 9 3 0 2 -4 -1 -10z m175 -14 c0 -2 -7 -7
-16 -10 -8 -3 -12 -2 -9 4 6 10 25 14 25 6z m-3 -34 c0 -10 -7 -24 -14 -31
-16 -15 -16 -9 -1 24 13 30 17 31 15 7z"/>
<path d="M1186 1822 c-3 -4 4 -9 15 -9 23 -2 25 3 4 10 -8 4 -16 3 -19 -1z"/>
<path d="M1776 1822 c-2 -4 -1 -14 4 -22 7 -11 9 -9 7 8 -1 24 -3 26 -11 14z"/>
<path d="M1865 1813 c-5 -14 -4 -15 6 -6 9 9 17 9 33 1 19 -10 20 -10 7 5 -18
22 -37 22 -46 0z"/>
<path d="M2110 1822 c0 -4 9 -8 20 -9 11 -1 20 2 20 5 0 4 -9 8 -20 9 -11 1
-20 -2 -20 -5z"/>
<path d="M1221 1789 c-19 -25 -25 -28 -42 -18 -19 10 -20 9 -10 -10 10 -17 9
-20 -4 -15 -8 4 -15 10 -15 15 0 5 -5 9 -11 9 -5 0 -8 -4 -5 -9 8 -12 -19 -33
-29 -23 -5 4 -5 2 -2 -5 4 -6 4 -13 0 -16 -5 -2 -3 -2 4 -1 6 2 14 -3 16 -10
4 -9 0 -12 -12 -9 -10 2 -23 -3 -30 -11 -8 -9 -9 -16 -3 -16 6 0 12 6 15 13 3
8 8 9 13 2 5 -5 8 -9 5 -8 -2 1 -10 -5 -18 -13 -8 -8 -19 -12 -24 -9 -5 4 -6
-1 -2 -10 5 -13 7 -14 14 -3 5 7 9 8 9 3 0 -6 -5 -16 -11 -22 -7 -7 -2 -21 20
-46 17 -19 31 -39 31 -43 0 -5 -5 -2 -10 6 -6 9 -10 10 -10 3 0 -20 18 -24 29
-6 6 10 11 13 11 6 0 -7 7 -10 18 -7 14 5 14 4 2 -4 -8 -6 -18 -8 -22 -6 -18
11 -7 -13 14 -31 15 -12 18 -20 10 -23 -9 -3 -10 -8 -3 -16 8 -9 7 -13 -3 -13
-9 0 -13 8 -10 21 4 24 -30 53 -41 36 -4 -6 -1 -9 6 -8 7 2 13 -2 14 -9 0 -6
3 -15 7 -19 4 -4 0 -13 -10 -21 -9 -8 -12 -12 -5 -9 6 3 18 3 27 0 15 -6 15
-7 0 -19 -10 -7 -14 -17 -10 -24 4 -6 2 -18 -4 -26 -8 -10 -9 -15 -2 -15 6 0
14 9 17 21 6 19 8 19 20 3 14 -19 10 -44 -7 -44 -6 0 -6 6 1 14 8 10 9 16 1
21 -5 3 -10 -1 -10 -10 0 -8 -7 -18 -16 -22 -23 -8 5 -24 29 -17 16 5 16 3 -3
-16 -20 -20 -21 -24 -6 -32 9 -5 16 -14 16 -21 0 -8 -3 -8 -8 -2 -9 13 -35 19
-28 6 4 -5 3 -11 -1 -14 -5 -2 -3 -2 4 -1 7 2 15 -1 18 -7 4 -5 12 -6 18 -2 7
4 6 0 -2 -10 -7 -9 -19 -17 -25 -17 -6 0 -4 5 4 11 12 9 12 10 -3 5 -10 -3
-21 -6 -23 -6 -12 0 -2 -17 11 -18 42 -5 42 -5 31 -29 -6 -12 -15 -23 -19 -23
-4 0 -3 9 3 20 6 11 7 20 2 20 -16 0 -22 -41 -7 -46 7 -3 12 -20 12 -39 -1
-18 -5 -31 -9 -29 -4 3 -8 1 -8 -4 0 -6 7 -13 16 -16 17 -6 10 -26 -9 -26 -7
0 -6 4 3 10 12 7 10 9 -7 7 -19 -1 -20 -3 -9 -17 7 -8 11 -21 9 -28 -3 -7 -1
-12 4 -11 4 1 15 1 23 0 13 -1 13 -3 0 -10 -8 -6 -18 -7 -23 -4 -4 3 -8 -1 -6
-8 3 -29 -1 -40 -13 -33 -9 5 -9 2 1 -9 11 -14 11 -20 0 -34 -10 -11 -10 -14
-1 -9 11 7 17 -5 13 -27 -1 -5 3 -6 8 -3 5 3 12 -2 17 -12 8 -20 8 -19 -1 -52
-5 -19 -4 -21 4 -10 9 13 11 12 12 -5 1 -11 0 -24 -1 -30 -1 -5 2 -7 6 -3 4 4
13 3 19 -2 9 -7 16 -6 25 5 7 8 17 15 23 15 6 0 0 -12 -14 -27 -13 -15 -17
-22 -8 -15 9 6 20 8 24 4 5 -4 6 -2 3 3 -3 6 0 15 7 22 11 10 15 10 18 0 4 -8
6 -7 6 3 1 8 10 21 20 27 22 14 22 40 0 54 -11 7 -11 9 4 9 9 0 17 7 17 15 0
9 -6 12 -17 9 -11 -4 -14 -2 -8 3 15 13 18 56 2 47 -9 -6 -9 -5 0 7 9 11 9 19
2 26 -8 8 -8 13 0 17 6 4 11 12 11 17 0 6 -6 7 -12 3 -9 -5 -9 -2 1 9 11 14
11 20 1 32 -11 14 -7 19 13 16 4 0 7 6 7 15 0 14 2 15 18 3 15 -12 15 -11 -1
8 -18 20 -18 22 0 32 10 6 13 11 6 11 -11 0 -28 -18 -28 -32 0 -3 -2 -9 -5
-11 -3 -3 -5 23 -5 58 0 35 3 61 8 58 4 -2 7 1 7 6 0 6 -6 11 -12 11 -7 0 -5
5 5 11 9 5 17 15 17 21 0 7 -4 7 -13 0 -10 -8 -12 -5 -12 14 1 13 5 27 10 31
4 5 5 3 1 -4 -7 -14 10 -28 18 -14 8 13 -21 34 -35 25 -8 -5 -9 -3 -5 5 5 7
13 10 20 8 6 -3 17 2 24 9 10 12 9 13 -9 11 -12 -1 -24 4 -26 11 -3 6 0 12 7
12 6 0 8 -4 5 -10 -3 -5 -4 -10 -1 -10 3 0 10 10 17 21 8 15 8 19 0 15 -6 -4
-19 -2 -28 4 -17 11 -17 11 0 6 22 -7 22 2 0 28 -10 12 -14 18 -9 14 10 -9 36
9 36 24 0 6 -8 4 -17 -3 -10 -7 -15 -9 -11 -5 4 5 2 16 -5 25 -10 14 -10 14 5
3 9 -8 19 -9 22 -4 3 6 -1 12 -9 15 -15 6 -13 33 4 65 6 11 7 22 4 26 -3 3 -1
6 6 6 7 0 9 5 5 12 -5 7 -8 24 -8 38 -1 14 -6 25 -13 25 -6 0 -15 4 -20 9 -5
5 -3 6 5 2 6 -4 12 -2 12 3 0 6 -5 11 -11 11 -6 0 -3 7 5 16 9 8 13 21 9 27
-13 20 -12 36 3 48 13 10 12 14 -2 30 -13 15 -21 16 -38 7 -20 -11 -20 -10 -3
9 14 16 14 20 2 20 -8 0 -12 -4 -9 -9 3 -4 0 -8 -5 -8 -6 0 -11 4 -11 9 0 23
-29 17 -49 -10z m33 5 c3 -8 2 -12 -4 -9 -6 3 -10 10 -10 16 0 14 7 11 14 -7z
m76 -48 c-8 -8 -13 -7 -20 4 -12 20 -1 33 16 19 11 -9 12 -15 4 -23z m-174 -8
c5 -7 3 -8 -6 -3 -10 6 -12 4 -7 -8 3 -10 3 -17 -2 -17 -16 0 -21 13 -10 27
14 16 16 16 25 1z m182 -140 c-2 -6 -10 -13 -16 -14 -7 -1 -8 0 -2 3 5 2 8 9
4 14 -3 5 0 9 6 9 7 0 10 -5 8 -12z m-2 -55 c-7 -33 -24 -52 -20 -21 1 13 3
25 4 28 1 3 2 8 1 13 0 4 4 7 9 7 6 0 8 -12 6 -27z m-152 -141 c2 -4 -4 -8
-15 -8 -10 0 -19 4 -19 8 0 4 6 8 14 8 8 0 17 -4 20 -8z m-8 -478 c-21 -20
-28 -17 -14 5 7 11 16 17 20 15 5 -3 2 -12 -6 -20z m7 -31 c-7 -2 -13 -12 -13
-21 0 -15 -2 -15 -10 -2 -9 15 4 30 25 29 6 0 4 -3 -2 -6z m144 -98 c0 -8 -4
-12 -9 -9 -5 3 -6 10 -3 15 9 13 12 11 12 -6z m-97 -61 c0 -3 -7 -1 -15 6 -8
7 -15 17 -15 22 0 5 7 3 15 -6 8 -8 15 -18 15 -22z"/>
<path d="M2167 1808 c-16 -12 -16 -14 3 -26 12 -7 20 -8 20 -2 0 5 -5 10 -11
10 -8 0 -8 5 1 15 15 18 10 19 -13 3z"/>
<path d="M1199 1783 c-13 -16 -12 -17 4 -4 9 7 17 15 17 17 0 8 -8 3 -21 -13z"/>
<path d="M1716 1773 c-6 -14 -5 -15 5 -6 7 7 10 15 7 18 -3 3 -9 -2 -12 -12z"/>
<path d="M1333 1715 c0 -8 4 -12 9 -9 4 3 8 9 8 15 0 5 -4 9 -8 9 -5 0 -9 -7
-9 -15z"/>
<path d="M2140 1670 c-24 -19 -24 -19 -3 -17 12 0 20 3 18 6 -3 2 0 10 6 18
16 18 8 16 -21 -7z"/>
<path d="M619 1678 c-5 -19 -8 -50 -4 -46 7 7 15 48 9 48 -2 0 -4 -1 -5 -2z"/>
<path d="M1335 1661 c-2 -5 3 -15 12 -22 9 -8 14 -9 10 -2 -4 6 -2 13 5 15 8
3 6 7 -5 11 -9 3 -19 2 -22 -2z"/>
<path d="M1673 1657 c19 -16 24 -32 5 -21 -6 4 -8 3 -4 -4 3 -5 0 -13 -6 -15
-7 -3 -4 -6 7 -6 17 -1 18 -3 5 -12 -11 -8 -12 -10 -1 -7 8 2 15 16 17 31 2
20 -3 30 -19 38 -20 9 -20 9 -4 -4z"/>
<path d="M2096 1647 c3 -10 9 -15 12 -12 3 3 0 11 -7 18 -10 9 -11 8 -5 -6z"/>
<path d="M2002 1629 c-15 -23 -15 -29 -1 -29 5 0 8 4 4 9 -8 15 29 32 43 21 9
-7 9 -7 2 2 -15 19 -36 17 -48 -3z"/>
<path d="M1052 1613 c2 -10 11 -24 21 -31 14 -11 15 -17 7 -27 -9 -11 -7 -12
9 -8 20 5 20 6 -4 35 -14 16 -23 34 -19 39 3 5 0 9 -6 9 -6 0 -10 -8 -8 -17z"/>
<path d="M2030 1616 c0 -2 8 -10 18 -17 15 -13 16 -12 3 4 -13 16 -21 21 -21
13z"/>
<path d="M2050 1566 c0 -18 30 -30 43 -17 6 6 2 9 -9 8 -11 -1 -18 4 -16 11 1
6 -2 12 -8 12 -5 0 -10 -6 -10 -14z"/>
<path d="M306 1558 c3 -4 9 -8 15 -8 5 0 9 4 9 8 0 5 -7 9 -15 9 -8 0 -12 -4
-9 -9z"/>
<path d="M1670 1550 c0 -5 5 -10 11 -10 5 0 7 5 4 10 -3 6 -8 10 -11 10 -2 0
-4 -4 -4 -10z"/>
<path d="M1355 1519 c-4 -6 -5 -12 -2 -15 2 -3 7 2 10 11 7 17 1 20 -8 4z"/>
<path d="M2141 1522 c0 -7 -7 -10 -13 -7 -7 4 -4 -1 6 -9 23 -19 36 -20 36 -5
0 5 -4 8 -9 4 -5 -3 -12 3 -14 12 -3 10 -5 12 -6 5z"/>
<path d="M393 1475 c0 -8 4 -12 9 -9 5 3 6 10 3 15 -9 13 -12 11 -12 -6z"/>
<path d="M2175 1480 c-3 -6 1 -7 9 -4 18 7 21 14 7 14 -6 0 -13 -4 -16 -10z"/>
<path d="M1330 1466 c0 -2 9 -6 20 -9 11 -3 18 -1 14 4 -5 9 -34 13 -34 5z"/>
<path d="M1755 1439 c-4 -6 -5 -12 -2 -15 2 -3 7 2 10 11 7 17 1 20 -8 4z"/>
<path d="M1780 1435 c-7 -9 -10 -18 -7 -21 3 -3 10 4 17 15 13 25 8 27 -10 6z"/>
<path d="M1898 1408 c5 -5 16 -8 23 -6 8 3 3 7 -10 11 -17 4 -21 3 -13 -5z"/>
<path d="M1335 1390 c-3 -5 -1 -10 4 -10 6 0 11 5 11 10 0 6 -2 10 -4 10 -3 0
-8 -4 -11 -10z"/>
<path d="M1970 1380 c0 -5 5 -10 11 -10 5 0 7 5 4 10 -3 6 -8 10 -11 10 -2 0
-4 -4 -4 -10z"/>
<path d="M2267 1333 c-8 -17 -1 -37 13 -40 12 -4 12 -3 2 5 -8 5 -14 13 -14
17 0 4 6 12 14 16 9 6 9 9 1 9 -6 0 -14 -3 -16 -7z"/>
<path d="M415 1300 c-3 -5 1 -10 10 -10 9 0 13 5 10 10 -3 6 -8 10 -10 10 -2
0 -7 -4 -10 -10z"/>
<path d="M1130 1300 c0 -5 5 -10 11 -10 5 0 7 5 4 10 -3 6 -8 10 -11 10 -2 0
-4 -4 -4 -10z"/>
<path d="M615 1280 c3 -5 8 -10 11 -10 2 0 4 5 4 10 0 6 -5 10 -11 10 -5 0 -7
-4 -4 -10z"/>
<path d="M407 1273 c-3 -4 1 -17 9 -28 14 -19 15 -19 11 2 -4 26 -13 38 -20
26z"/>
<path d="M2095 1270 c-4 -6 -11 -7 -17 -4 -7 5 -8 2 -4 -5 5 -7 11 -10 14 -7
3 3 10 2 16 -4 8 -6 12 -3 12 11 0 21 -11 25 -21 9z"/>
<path d="M2290 1226 c0 -2 7 -9 15 -16 13 -11 14 -10 9 4 -5 14 -24 23 -24 12z"/>
<path d="M410 1209 c0 -5 -6 -7 -12 -3 -7 4 -9 3 -5 -1 13 -15 36 -14 30 1 -6
17 -13 18 -13 3z"/>
<path d="M2100 1193 c0 -1 8 -7 18 -12 13 -7 19 -6 19 2 0 7 -9 13 -19 13 -10
0 -18 -1 -18 -3z"/>
<path d="M413 1165 c0 -8 4 -15 9 -15 4 0 8 4 8 9 0 6 -4 12 -8 15 -5 3 -9 -1
-9 -9z"/>
<path d="M1339 1168 c0 -2 -2 -17 -3 -34 -2 -27 0 -30 18 -25 17 4 18 6 4 9
-10 2 -15 9 -11 18 3 7 10 11 17 7 6 -4 5 1 -3 10 -12 16 -20 21 -22 15z"/>
<path d="M633 1115 c0 -8 4 -12 9 -9 5 3 6 10 3 15 -9 13 -12 11 -12 -6z"/>
<path d="M1145 1111 c-3 -5 -2 -12 3 -15 5 -3 9 1 9 9 0 17 -3 19 -12 6z"/>
<path d="M1332 1013 c5 -7 6 -18 2 -24 -4 -8 -3 -9 4 -5 7 4 12 13 12 21 0 7
6 15 13 18 6 2 0 4 -15 3 -19 -1 -24 -4 -16 -13z"/>
<path d="M2265 1010 c-8 -13 3 -30 18 -29 9 0 9 2 0 5 -7 3 -9 12 -6 20 6 16
-3 19 -12 4z"/>
<path d="M1331 956 c-8 -10 -9 -16 -1 -21 6 -3 8 -10 5 -15 -3 -5 5 -14 17
-20 19 -9 21 -9 8 2 -18 15 -21 49 -5 60 7 5 6 8 -1 8 -6 0 -17 -6 -23 -14z"/>
<path d="M1736 932 c-3 -4 4 -9 15 -9 23 -2 25 3 4 10 -8 4 -16 3 -19 -1z"/>
<path d="M1963 905 c0 -8 4 -12 9 -9 5 3 6 10 3 15 -9 13 -12 11 -12 -6z"/>
<path d="M399 891 c7 -5 11 -13 7 -19 -10 -17 10 -23 24 -8 9 12 7 17 -9 25
-24 13 -42 14 -22 2z"/>
<path d="M1330 879 c0 -5 5 -7 10 -4 6 3 10 8 10 11 0 2 -4 4 -10 4 -5 0 -10
-5 -10 -11z"/>
<path d="M397 839 c7 -9 9 -20 5 -25 -4 -4 1 -2 11 5 9 7 17 16 17 19 0 3 -3
2 -7 -1 -3 -4 -13 -1 -22 6 -14 10 -14 10 -4 -4z"/>
<path d="M1147 824 c7 -3 9 -12 6 -20 -3 -8 0 -14 7 -14 6 0 8 5 5 10 -3 6 0
10 7 10 9 0 9 3 -2 10 -8 5 -19 9 -25 9 -5 0 -5 -3 2 -5z"/>
<path d="M1350 820 c0 -5 5 -10 11 -10 5 0 7 5 4 10 -3 6 -8 10 -11 10 -2 0
-4 -4 -4 -10z"/>
<path d="M1678 794 c6 -3 9 -11 5 -17 -4 -7 1 -6 10 2 17 13 23 6 18 -21 0 -5
4 -8 9 -8 28 0 -2 43 -32 46 -13 2 -17 0 -10 -2z"/>
<path d="M2136 782 c-3 -5 1 -9 9 -9 8 0 12 4 9 9 -3 4 -7 8 -9 8 -2 0 -6 -4
-9 -8z"/>
<path d="M2077 762 c3 -7 9 -10 12 -5 3 4 10 11 15 15 4 4 -1 6 -12 5 -12 -1
-18 -6 -15 -15z"/>
<path d="M1336 753 c-6 -14 -5 -15 5 -6 7 7 10 15 7 18 -3 3 -9 -2 -12 -12z"/>
<path d="M472 744 c10 -10 20 -16 22 -13 3 3 -5 11 -17 18 -21 13 -21 12 -5
-5z"/>
<path d="M1775 749 c-4 -6 -4 -13 -1 -16 3 -4 6 0 6 8 0 12 2 12 10 -1 5 -8
21 -15 37 -15 17 0 27 -6 25 -14 -1 -7 2 -10 8 -6 8 5 8 11 -1 21 -6 7 -15 11
-20 8 -5 -3 -9 0 -9 7 0 7 -3 9 -6 6 -4 -3 -15 -2 -25 3 -12 7 -20 6 -24 -1z"/>
<path d="M575 741 c-3 -5 -2 -12 3 -15 5 -3 9 1 9 9 0 17 -3 19 -12 6z"/>
<path d="M2197 525 c6 -18 5 -19 -13 -5 -15 11 -16 11 -6 0 18 -21 15 -29 -13
-25 -14 1 -28 -1 -30 -5 -3 -5 -13 -7 -23 -5 -9 2 -21 4 -25 4 -4 1 -3 11 3
24 11 21 10 21 -8 -2 -14 -17 -21 -20 -24 -10 -3 10 -6 9 -11 -3 -4 -12 -1
-16 13 -13 11 2 22 0 25 -5 3 -4 -3 -7 -12 -5 -19 3 -45 -13 -39 -24 2 -3 -8
-7 -22 -8 l-27 -1 28 14 c15 8 25 20 21 26 -4 7 -10 5 -16 -6 -5 -9 -13 -14
-18 -11 -10 6 -25 -40 -22 -65 1 -10 0 -11 -4 -2 -4 9 -9 10 -19 2 -16 -13
-36 -10 -51 9 -9 11 -11 10 -9 -7 1 -12 5 -25 10 -29 4 -5 5 -3 2 4 -8 12 17
12 30 -1 4 -4 1 -6 -7 -4 -8 2 -14 -2 -13 -9 2 -8 -5 -8 -24 2 -20 11 -31 11
-47 3 -12 -6 -22 -12 -23 -12 -1 -1 -9 8 -18 19 -14 19 -15 19 -8 1 4 -13 3
-17 -5 -12 -6 3 -13 2 -16 -3 -3 -5 8 -7 24 -6 29 3 40 -8 20 -20 -5 -3 -10
-1 -10 6 0 9 -3 9 -14 0 -10 -8 -16 -9 -21 -1 -3 5 -15 10 -26 10 -13 0 -18 4
-13 12 5 7 3 8 -6 3 -10 -6 -10 -11 4 -20 15 -12 15 -13 0 -19 -22 -8 -32 -7
-17 2 8 5 6 14 -8 32 -18 23 -19 23 -9 3 11 -24 2 -31 -17 -12 -7 7 -12 6 -17
-6 -3 -9 -2 -14 2 -11 4 2 14 0 22 -5 10 -6 4 -8 -19 -4 -21 4 -37 1 -41 -5
-5 -8 -9 -6 -13 5 -4 9 -3 14 2 11 4 -3 17 1 27 10 18 14 18 15 -3 5 -18 -9
-22 -8 -26 7 -4 15 -5 15 -6 -2 -1 -13 -6 -17 -22 -13 -14 4 -19 2 -16 -7 4
-9 -3 -12 -20 -10 -19 2 -23 -1 -19 -13 6 -14 4 -14 -17 0 -18 12 -27 13 -36
4 -8 -8 -11 -8 -11 1 0 13 3 14 52 16 19 0 33 7 35 16 4 12 3 12 -5 2 -13 -20
-17 -19 -43 3 -12 11 -19 15 -16 8 10 -17 -13 -28 -25 -12 -8 11 -9 10 -4 -3
4 -15 -1 -18 -31 -18 -32 0 -34 -2 -22 -17 13 -16 12 -17 -3 -4 -10 7 -15 18
-11 25 3 6 -5 1 -19 -12 -18 -16 -25 -18 -25 -8 0 8 5 13 10 9 5 -3 1 6 -8 21
-19 28 -27 34 -19 12 3 -9 -1 -13 -13 -13 -12 2 -17 -4 -15 -15 2 -10 -2 -18
-8 -18 -9 0 -15 22 -11 43 1 5 -3 6 -8 2 -6 -3 -7 -13 -4 -22 4 -10 2 -14 -5
-9 -6 3 -13 2 -16 -3 -5 -7 -41 -8 -41 -1 0 7 -36 6 -41 -1 -8 -13 -21 -11
-27 4 -4 11 8 13 54 12 32 0 59 2 59 6 0 3 -28 5 -62 4 -35 -1 -70 3 -78 9
-13 10 -13 9 -1 -7 8 -9 11 -21 7 -24 -11 -11 -36 -12 -36 -1 0 6 8 7 18 3 13
-5 14 -4 5 6 -17 17 -56 20 -42 3 7 -8 6 -14 -2 -20 -8 -4 -9 -3 -5 4 9 15 1
15 -26 1 -16 -9 -19 -8 -13 2 6 9 3 11 -9 6 -9 -4 -15 -3 -12 2 3 5 -1 12 -10
15 -9 4 -13 2 -8 -5 4 -7 1 -10 -7 -7 -8 3 -14 10 -14 15 0 6 -3 14 -7 17 -5
3 -6 3 -3 -1 3 -3 -1 -13 -8 -21 -10 -13 -9 -14 3 -7 13 8 13 7 1 -8 -15 -18
-26 -23 -16 -7 3 6 -1 10 -10 10 -10 0 -13 -5 -9 -13 6 -9 4 -9 -7 -1 -16 12
-29 12 -48 0 -9 -6 -12 -5 -8 1 4 6 -2 22 -13 34 -16 19 -21 21 -29 10 -5 -8
-14 -10 -22 -6 -11 6 -11 5 -2 -5 10 -11 15 -11 28 0 10 8 15 9 15 1 0 -6 1
-14 3 -18 1 -3 -10 -7 -25 -7 -14 -1 -24 3 -21 8 4 5 -1 7 -11 3 -10 -4 -15
-3 -11 3 3 6 -1 10 -10 10 -11 0 -15 5 -11 15 8 22 -2 18 -14 -5 -8 -15 -8
-20 1 -18 6 2 13 -3 15 -10 1 -7 0 -8 -3 -2 -3 7 -10 7 -21 -2 -12 -10 -14
-10 -8 0 4 7 1 15 -8 18 -9 3 -14 9 -11 13 2 4 -1 8 -8 9 -35 3 -51 11 -58 28
-6 14 -8 15 -8 3 -1 -8 4 -20 10 -26 8 -8 7 -13 -2 -18 -8 -6 -10 -4 -4 5 6
10 4 12 -7 8 -11 -5 -14 0 -13 16 2 14 -3 23 -11 23 -10 0 -11 -4 -3 -13 7 -8
6 -14 -2 -20 -8 -4 -9 -3 -5 4 9 16 -7 15 -22 0 -9 -9 -12 -9 -12 0 0 7 5 12
10 12 19 0 10 16 -10 17 -11 1 -18 -2 -16 -6 3 -4 -1 -8 -9 -8 -13 0 -12 4 2
19 17 19 5 26 -14 7 -7 -7 -12 -6 -17 6 -3 9 -2 14 3 11 5 -3 15 2 22 12 12
15 12 16 -2 4 -13 -10 -19 -9 -29 3 -7 8 -17 12 -23 8 -21 -13 -57 -11 -57 3
0 11 -4 12 -19 4 -20 -10 -41 4 -27 17 3 4 6 1 6 -6 0 -7 5 -9 11 -5 8 4 7 9
-2 15 -22 14 -29 11 -29 -11 0 -11 -4 -20 -9 -20 -4 0 -7 11 -6 25 4 30 2 30
-16 8 -12 -14 -12 -16 0 -8 10 5 12 4 7 -4 -4 -6 -11 -9 -16 -6 -5 3 -11 1
-15 -5 -3 -5 -11 -10 -16 -10 -5 0 -1 10 11 22 11 12 17 24 14 27 -3 3 -10 -2
-15 -12 -6 -9 -14 -15 -20 -12 -5 4 -9 -1 -9 -10 0 -13 -4 -14 -20 -5 -11 6
-17 16 -14 22 4 7 2 8 -5 4 -8 -5 -9 -12 -2 -20 7 -9 4 -18 -12 -31 -12 -11
-26 -19 -30 -17 -4 1 -7 -3 -6 -10 3 -28 -2 -38 -18 -39 -14 0 -14 -2 3 -9 12
-5 25 -14 30 -21 4 -8 3 -10 -4 -5 -7 4 -12 2 -12 -3 0 -6 7 -11 15 -11 10 0
13 -9 10 -30 -2 -17 0 -28 5 -25 5 3 7 12 3 20 -4 11 -1 13 13 8 13 -5 15 -3
9 7 -6 9 -4 11 6 5 15 -10 40 -15 80 -18 17 -1 25 -7 22 -14 -3 -7 -9 -11 -13
-8 -4 3 -10 -1 -13 -8 -3 -8 1 -14 9 -14 7 0 16 7 18 14 3 8 10 11 16 8 6 -4
7 -11 4 -17 -4 -6 -2 -8 4 -4 5 3 13 0 15 -6 4 -10 6 -10 6 -1 1 7 8 10 16 7
8 -4 22 -1 30 6 9 7 18 10 22 6 3 -3 1 -6 -6 -6 -8 0 -11 -6 -7 -16 3 -8 2
-12 -3 -9 -5 3 -12 1 -15 -4 -4 -5 -2 -12 4 -16 5 -3 15 3 22 14 15 24 39 10
31 -18 -6 -22 29 -35 47 -17 10 8 10 6 1 -11 -8 -16 -8 -24 1 -29 6 -4 8 -3 5
3 -4 6 1 17 10 24 9 8 14 9 10 3 -9 -15 16 -25 34 -13 8 5 19 9 24 9 6 0 3 -4
-5 -10 -8 -5 -12 -12 -8 -15 3 -3 13 1 22 10 16 17 21 10 17 -23 -2 -15 15
-16 25 0 4 7 3 8 -4 4 -8 -5 -10 -1 -5 10 5 14 7 14 18 -5 6 -12 14 -19 18
-15 4 4 1 14 -6 23 -11 14 -10 14 6 2 13 -11 17 -11 17 -1 0 8 3 10 6 7 4 -4
0 -17 -9 -30 -12 -19 -13 -24 -2 -24 8 0 12 4 9 8 -2 4 3 12 12 17 9 5 15 12
15 15 -2 17 0 19 14 7 12 -10 19 -10 27 -2 8 8 17 8 31 0 14 -7 22 -7 27 2 5
9 9 9 14 1 4 -6 18 -9 32 -7 21 4 23 2 14 -14 -7 -13 -7 -21 0 -25 6 -4 9 -1
8 5 -2 6 7 18 19 27 20 13 21 13 16 -6 -3 -11 -10 -18 -16 -14 -6 3 -7 1 -3
-6 6 -8 12 -9 20 -2 9 7 17 7 26 -2 10 -9 11 -9 6 0 -10 18 4 16 28 -5 16 -13
18 -13 8 -1 -6 9 -8 20 -4 24 4 5 1 5 -5 1 -9 -5 -11 -2 -6 9 3 9 9 13 12 8 3
-4 11 -8 16 -9 24 -1 64 -17 60 -23 -2 -4 2 -8 10 -8 8 0 12 4 9 9 -3 4 0 8 6
8 6 0 9 4 5 9 -3 5 -1 12 4 16 6 3 8 -3 6 -15 -2 -11 1 -23 7 -26 6 -4 8 -2 4
4 -10 17 37 10 52 -8 11 -13 12 -13 7 0 -4 12 3 16 25 18 19 2 29 -2 25 -8 -3
-5 -2 -10 3 -10 6 0 13 7 16 16 3 8 2 12 -3 9 -5 -3 -12 -1 -15 4 -4 5 -2 12
3 15 5 4 12 2 16 -4 9 -15 28 -12 19 3 -6 9 -4 9 6 0 12 -11 11 -16 -6 -29
-18 -15 -18 -15 3 -5 29 14 36 14 27 -1 -6 -10 -5 -10 8 -1 8 7 19 9 23 5 5
-4 5 -2 1 5 -3 6 -2 14 3 17 11 7 23 -22 15 -37 -3 -7 1 -4 9 5 8 10 18 14 22
10 5 -4 5 1 2 10 -3 10 -1 20 5 24 7 4 8 3 4 -4 -4 -7 -2 -12 4 -12 6 0 8 -4
5 -10 -4 -6 1 -7 12 -3 16 6 17 5 3 -13 -14 -17 -13 -18 1 -7 9 7 18 12 20 10
3 -1 -3 5 -13 15 -22 20 -24 36 -3 18 11 -10 19 -10 27 -2 6 6 17 8 24 5 8 -3
14 1 14 8 0 9 3 10 8 4 4 -5 14 -10 22 -10 8 0 19 5 23 10 5 6 7 4 4 -5 -2 -8
-12 -13 -23 -12 -10 2 -17 2 -14 0 44 -33 44 -33 35 -19 -6 11 -4 13 9 8 10
-4 25 2 38 15 13 13 19 15 16 6 -4 -8 -2 -21 4 -29 8 -11 9 -10 4 4 -4 14 1
17 29 17 47 0 48 0 63 12 6 6 12 7 12 3 0 -5 10 0 23 11 l22 19 -19 -22 c-12
-14 -14 -23 -7 -23 7 0 9 -5 5 -12 -4 -7 -3 -8 5 -4 6 4 9 11 6 15 -2 5 3 16
13 24 16 15 18 15 19 -6 2 -15 0 -18 -6 -8 -6 9 -11 10 -15 2 -4 -6 -2 -11 4
-11 6 0 8 -6 5 -12 -4 -7 7 3 24 22 17 19 31 29 31 23 0 -7 -4 -13 -9 -13 -5
0 -11 -9 -14 -19 -3 -14 -1 -18 9 -14 8 3 12 9 9 13 -3 5 7 7 22 5 16 -1 27
-8 25 -14 -1 -6 2 -11 7 -11 6 0 9 9 8 19 -1 13 -8 18 -22 16 -12 -1 -22 4
-22 11 0 9 5 10 17 4 10 -5 20 -7 23 -3 4 3 9 -2 13 -11 3 -9 10 -16 15 -16 6
0 4 10 -2 23 -11 20 -11 21 4 9 13 -11 17 -10 26 5 6 11 11 13 12 6 1 -7 2
-18 3 -25 0 -6 9 -12 19 -14 11 -1 14 2 10 9 -4 7 -8 19 -10 27 -1 13 0 13 10
0 13 -17 31 -20 44 -7 4 5 2 7 -6 5 -7 -2 -16 4 -18 12 -4 13 -3 13 6 0 6 -8
11 -11 11 -6 0 5 7 3 16 -4 12 -11 15 -11 12 1 -2 8 -7 17 -13 21 -6 5 -5 8 3
8 7 0 15 -7 19 -15 5 -14 8 -13 20 4 7 11 20 18 27 15 8 -3 17 -1 21 5 4 7 -1
8 -12 4 -10 -3 -15 -3 -11 2 4 4 3 14 -3 21 -7 8 -6 14 2 20 8 5 9 3 4 -6 -6
-10 -4 -11 11 -5 10 4 27 7 36 7 16 -1 33 26 23 36 -3 3 -5 -1 -5 -9 0 -12 -2
-11 -11 1 -10 13 -10 13 -6 -1 3 -9 -1 -16 -9 -16 -18 0 -18 4 4 32 17 21 19
21 30 7 10 -16 11 -16 11 1 1 9 6 17 11 17 12 0 9 -22 -5 -32 -6 -5 -5 -12 4
-20 9 -8 11 -9 7 -1 -3 6 -2 14 4 18 6 4 7 11 4 17 -4 6 -1 8 7 6 8 -3 13 -10
12 -15 -1 -5 4 -10 11 -10 7 0 13 6 13 13 0 7 -5 10 -10 7 -6 -3 -7 -1 -3 5 4
7 0 12 -11 13 -11 0 -13 3 -5 6 7 3 18 1 25 -5 7 -5 25 -7 40 -5 21 3 27 0 21
-8 -4 -7 -3 -9 4 -5 6 3 12 1 15 -6 2 -7 3 -5 2 5 -2 9 1 17 5 17 5 0 15 6 22
13 7 6 22 19 32 27 18 14 19 14 5 -7 -8 -13 -17 -23 -22 -23 -4 0 -5 -5 -1
-11 4 -6 13 1 24 18 12 19 14 32 7 41 -5 6 -6 12 -2 12 4 0 1 8 -6 17 -10 11
-10 14 -1 9 6 -4 12 -2 12 3 0 10 -14 15 -33 12 -5 -1 -6 3 -2 8 3 6 12 8 20
4 8 -3 15 -1 15 5 0 6 -13 8 -29 6 -23 -4 -31 -1 -36 16 -7 22 -20 26 -30 10
-4 -6 -1 -9 6 -8 6 2 14 -4 16 -12 3 -10 2 -11 -4 -4 -4 6 -18 10 -31 9 l-22
-2 22 26 c13 14 16 20 8 14 -17 -15 -34 -17 -25 -3 3 6 1 10 -5 10 -7 0 -10
-6 -7 -14 3 -8 -2 -20 -11 -28 -11 -9 -14 -10 -8 0 9 15 1 15 -24 2 -16 -8
-18 -8 -14 5 3 8 10 13 14 10 4 -3 14 3 21 13 13 16 13 16 -5 2 -24 -19 -22
-19 -41 5 l-15 20 7 -20z m-1715 -83 c-10 -3 -10 -7 0 -20 12 -14 11 -14 -9
-2 -16 11 -19 17 -11 27 5 7 15 10 21 6 8 -5 7 -8 -1 -11z m190 -86 c7 4 8 2
4 -4 -11 -18 -26 -14 -25 6 0 10 3 12 6 4 2 -6 10 -9 15 -6z m1193 -14 c-3 -3
-11 0 -18 7 -9 10 -8 11 6 5 10 -3 15 -9 12 -12z m-522 -19 c-3 -7 -9 -13 -15
-13 -5 0 -7 4 -4 9 4 5 0 11 -6 14 -7 3 -3 4 8 4 14 -1 20 -6 17 -14z m267 3
c0 -3 -4 -8 -10 -11 -5 -3 -10 -1 -10 4 0 6 5 11 10 11 6 0 10 -2 10 -4z
m-1241 -33 c-3 -18 2 -27 9 -17 5 9 11 8 20 -2 11 -12 10 -14 -5 -11 -24 3
-43 16 -43 28 0 5 5 9 10 9 6 0 9 -3 9 -7z m1711 -68 c-7 -9 -15 -13 -17 -11
-6 6 20 36 26 30 2 -2 -2 -10 -9 -19z m-1571 -22 c0 -11 -3 -13 -6 -5 -2 6
-10 9 -15 6 -7 -4 -8 -2 -4 4 11 18 26 14 25 -5z m1081 -38 c0 -2 -6 -8 -13
-14 -10 -8 -14 -7 -14 2 0 8 6 14 14 14 7 0 13 -1 13 -2z m-628 -27 c-7 -7
-12 -8 -12 -2 0 14 12 26 19 19 2 -3 -1 -11 -7 -17z m203 12 c18 7 23 6 19 -4
-6 -16 -47 -14 -50 3 -1 6 0 7 2 2 3 -6 14 -7 29 -1z m55 6 c0 -2 -8 -10 -17
-17 -16 -13 -17 -12 -4 4 13 16 21 21 21 13z m102 -3 c-6 -2 -9 -10 -6 -15 4
-7 2 -8 -5 -4 -13 9 -5 26 12 25 9 0 8 -2 -1 -6z m-232 -13 c0 -5 -7 -7 -15
-4 -8 4 -15 8 -15 10 0 2 7 4 15 4 8 0 15 -4 15 -10z"/>
<path d="M2111 512 c-7 -14 -6 -19 4 -19 7 0 13 9 12 19 -1 10 -2 18 -4 18 -1
0 -7 -8 -12 -18z"/>
<path d="M2145 521 c-6 -11 13 -26 22 -17 4 3 1 6 -6 6 -7 0 -9 5 -6 10 3 6 4
10 1 10 -3 0 -7 -4 -11 -9z"/>
<path d="M2365 490 c-3 -6 1 -7 9 -4 18 7 21 14 7 14 -6 0 -13 -4 -16 -10z"/>
<path d="M440 481 c0 -7 -5 -9 -12 -5 -7 5 -8 3 -3 -5 5 -9 10 -10 18 -2 6 6
8 14 4 18 -4 3 -7 1 -7 -6z"/>
<path d="M156 443 c-6 -14 -5 -15 5 -6 7 7 10 15 7 18 -3 3 -9 -2 -12 -12z"/>
<path d="M1939 434 c6 -12 7 -24 4 -28 -3 -3 -4 -6 -1 -6 3 0 12 8 19 18 7 9
9 14 5 10 -5 -4 -15 0 -23 10 -13 15 -13 15 -4 -4z"/>
<path d="M2416 433 c-6 -14 -5 -15 5 -6 7 7 10 15 7 18 -3 3 -9 -2 -12 -12z"/>
<path d="M153 405 c0 -8 4 -12 9 -9 5 3 6 10 3 15 -9 13 -12 11 -12 -6z"/>
<path d="M711 364 c0 -11 3 -14 6 -6 3 7 2 16 -1 19 -3 4 -6 -2 -5 -13z"/>
<path d="M862 350 c0 -14 2 -19 5 -12 2 6 2 18 0 25 -3 6 -5 1 -5 -13z"/>
<path d="M888 353 c-3 -12 0 -20 8 -20 16 0 17 6 5 25 -6 11 -9 9 -13 -5z"/>
<path d="M925 359 c-4 -6 -5 -12 -2 -15 2 -3 7 2 10 11 7 17 1 20 -8 4z"/>
<path d="M1380 355 c-11 -13 -10 -14 4 -9 9 3 16 10 16 15 0 13 -6 11 -20 -6z"/>
<path d="M1027 339 c7 -7 15 -10 18 -7 3 3 -2 9 -12 12 -14 6 -15 5 -6 -5z"/>
<path d="M2353 325 c0 -8 4 -15 9 -15 4 0 8 4 8 9 0 6 -4 12 -8 15 -5 3 -9 -1
-9 -9z"/>
<path d="M2270 319 c0 -3 9 -9 19 -12 13 -3 18 0 15 7 -5 13 -34 18 -34 5z"/>
<path d="M233 284 c0 -7 4 -11 8 -8 4 2 9 1 12 -3 2 -5 2 -2 1 5 -2 6 1 12 6
12 6 0 10 -4 10 -8 0 -5 7 -9 15 -9 24 0 0 19 -28 22 -14 2 -24 -2 -24 -11z"/>
<path d="M447 215 c-4 -8 -1 -17 6 -21 7 -4 9 -4 5 1 -4 4 -3 14 3 22 7 8 8
13 1 13 -5 0 -12 -7 -15 -15z"/>
<path d="M1939 178 c-5 -9 -5 -48 -1 -43 6 6 11 45 5 45 -2 0 -4 -1 -4 -2z"/>
<path d="M615 149 c-4 -6 -5 -12 -2 -15 2 -3 7 2 10 11 7 17 1 20 -8 4z"/>
<path d="M734 141 c0 -11 4 -17 9 -14 4 2 16 -1 25 -8 9 -8 6 -1 -7 14 -14 15
-25 27 -26 27 0 0 -1 -9 -1 -19z"/>
<path d="M776 152 c-4 -7 0 -15 11 -19 10 -3 21 -8 25 -10 4 -2 5 3 2 11 -3 9
-10 14 -14 11 -5 -3 -10 0 -12 7 -3 9 -6 9 -12 0z"/>
<path d="M1705 150 c-4 -6 -10 -8 -15 -5 -14 9 -23 -16 -11 -28 9 -9 11 -8 6
5 -6 14 -2 16 22 13 15 -2 22 -2 15 1 -6 3 -10 10 -6 15 3 5 3 9 0 9 -3 0 -8
-5 -11 -10z"/>
<path d="M830 140 c0 -16 17 -19 34 -7 14 11 13 12 -9 13 -14 1 -25 -2 -25 -6z"/>
<path d="M1454 139 c-2 -4 4 -13 13 -20 12 -10 14 -10 9 -1 -4 7 -1 12 8 12 9
0 16 4 16 8 0 9 -40 10 -46 1z"/>
<path d="M1015 130 c-3 -5 -5 -10 -3 -11 33 -8 38 -7 27 7 -14 17 -16 17 -24
4z"/>
</g>
</svg>
